<svg xmlns="http://www.w3.org/2000/svg" xmlns:xlink="http://www.w3.org/1999/xlink" width="500" zoomAndPan="magnify" viewBox="0 0 375 374.999991" height="500" preserveAspectRatio="xMidYMid meet" version="1.0"><defs><clipPath id="333e69f5a1"><path d="M 33 128.519531 L 339 128.519531 L 339 246.269531 L 33 246.269531 Z M 33 128.519531 " clip-rule="nonzero"/></clipPath></defs><g clip-path="url(#333e69f5a1)"><path fill="#000000" d="M 199.785156 132.964844 C 185.691406 134 170.183594 135.765625 153.261719 138.269531 C 153.21875 138.277344 153.171875 138.285156 153.128906 138.292969 C 119.410156 145.519531 93.027344 152.914062 73.976562 160.484375 C 91.664062 150.523438 114.628906 143.253906 142.875 138.671875 L 142.886719 138.667969 C 162.710938 135.34375 181.675781 133.441406 199.78125 132.964844 Z M 39.15625 212.917969 C 42.265625 216.984375 46.832031 220.777344 52.855469 224.292969 C 58.863281 227.796875 66.355469 231.019531 75.339844 233.953125 C 69.6875 233.144531 64.6875 232.140625 60.332031 230.941406 C 56.34375 229.460938 52.890625 227.789062 49.972656 225.929688 C 44.363281 222.359375 40.757812 218.019531 39.152344 212.917969 Z M 227.390625 136.015625 C 249.207031 136.015625 266.257812 138.449219 278.535156 143.324219 C 278.789062 143.425781 279.046875 143.472656 279.304688 143.472656 C 280.128906 143.472656 280.914062 142.976562 281.238281 142.164062 C 281.265625 142.089844 281.289062 142.019531 281.308594 141.945312 L 281.3125 141.945312 C 281.535156 142.007812 281.757812 142.066406 281.976562 142.128906 C 320.164062 154.707031 337.628906 171.585938 334.371094 192.769531 L 334.367188 192.769531 C 328.003906 212.265625 303.964844 226.191406 262.257812 234.542969 L 262.253906 234.542969 C 229.292969 239.480469 198.691406 241.949219 170.445312 241.949219 C 157.8125 241.949219 145.652344 241.457031 133.964844 240.46875 L 133.960938 240.46875 C 155.519531 239.96875 180.652344 238.390625 209.363281 235.734375 C 210.507812 235.628906 211.347656 234.617188 211.242188 233.476562 C 211.140625 232.398438 210.234375 231.589844 209.171875 231.589844 C 209.105469 231.589844 209.042969 231.59375 208.976562 231.601562 C 173.652344 234.871094 143.8125 236.503906 119.460938 236.503906 C 112.914062 236.503906 106.761719 236.386719 101.007812 236.148438 L 101.003906 236.148438 C 97.894531 235.585938 94.820312 234.980469 91.789062 234.332031 C 76.0625 230.402344 63.785156 225.859375 54.957031 220.710938 C 45.136719 214.976562 39.722656 208.460938 38.714844 201.160156 C 39.789062 195.546875 42.523438 189.304688 46.914062 182.421875 L 46.910156 182.421875 C 49.226562 179.632812 51.769531 176.957031 54.546875 174.398438 C 71.699219 163.570312 104.828125 152.894531 153.933594 142.367188 L 153.929688 142.367188 C 182.5625 138.132812 207.050781 136.015625 227.390625 136.015625 Z M 208.796875 128.695312 C 187.765625 128.695312 165.566406 130.65625 142.195312 134.574219 C 101.128906 141.238281 70.882812 153.582031 51.453125 171.601562 C 45.472656 175.476562 41.332031 179.390625 39.03125 183.351562 C 35.261719 189.777344 33.691406 195.785156 34.316406 201.382812 C 32.28125 213.089844 36.753906 222.4375 47.734375 229.429688 C 50.921875 231.457031 54.664062 233.269531 58.960938 234.863281 C 59.015625 234.882812 59.070312 234.902344 59.128906 234.917969 C 69.402344 237.753906 83.171875 239.535156 100.433594 240.265625 C 121.929688 244.152344 145.269531 246.097656 170.449219 246.097656 C 198.921875 246.097656 229.753906 243.613281 262.933594 238.636719 C 262.96875 238.632812 263.003906 238.625 263.035156 238.621094 C 306.496094 229.921875 331.613281 215 338.386719 193.855469 C 338.417969 193.753906 338.445312 193.652344 338.460938 193.546875 C 342.183594 169.96875 323.765625 151.507812 283.210938 138.164062 C 283.175781 138.152344 283.144531 138.144531 283.113281 138.132812 C 260.214844 131.84375 235.445312 128.695312 208.796875 128.695312 Z M 208.796875 128.695312 " fill-opacity="1" fill-rule="nonzero"/></g></svg>